<svg xmlns="http://www.w3.org/2000/svg" width="35.998" height="35.998" viewBox="0 0 35.998 35.998">
  <g id="facebook-icon" transform="translate(5915 -7645.104)">
    <path id="Path_54" data-name="Path 54" d="M399.705,1093.269a16.986,16.986,0,0,1-17,17h-.127a17,17,0,1,1,17.126-17" transform="translate(-6279.707 6569.834)" fill="none" stroke="#fff" stroke-width="2"/>
    <path id="Path_55" data-name="Path 55" d="M509.715,1152.581v3.379H514.2l-.6,4.565h-3.885v10.988a15.8,15.8,0,0,1-2.857.594,16,16,0,0,1-1.815.1h-.119v-11.684h-3.885v-4.565h3.885v-3.875a5.526,5.526,0,0,1,5.286-5.521,16.84,16.84,0,0,1,2.362.061l1.745.169v4.074h-2.888a1.713,1.713,0,0,0-1.714,1.714" transform="translate(-6404.415 6503.383)" fill="#fff"/>
  </g>
</svg>
