<svg xmlns="http://www.w3.org/2000/svg" width="35.999" height="35.998" viewBox="0 0 35.999 35.998">
  <g id="google-icon" transform="translate(5814 -7645.104)">
    <g id="Group_291" data-name="Group 291">
      <path id="Path_62" data-name="Path 62" d="M2239.848,1093.269a16.987,16.987,0,0,1-17,17h-.126a17,17,0,1,1,17.126-17" transform="translate(-8018.85 6569.834)" fill="none" stroke="#fff" stroke-width="2"/>
      <path id="Path_63" data-name="Path 63" d="M2310.668,1169.79q0-.107-.006-.214c0-.059,0-.118-.008-.177s-.007-.126-.01-.189-.008-.105-.012-.157c0-.025,0-.049-.007-.073s-.007-.078-.01-.117c-.009-.074-.016-.148-.026-.223-.007-.058-.015-.116-.023-.174h-11.018v4.593h5.946a6.7,6.7,0,0,1-12.644-3.089,6.7,6.7,0,0,1,10.976-5.155l3.134-3.134a11.114,11.114,0,1,0,3.272,11.378c0-.008,0-.016.007-.024.01-.034.019-.067.028-.1s.017-.059.025-.089c.03-.113.057-.226.085-.342.014-.059.028-.117.039-.177a.237.237,0,0,0,.007-.028c.009-.047.019-.093.029-.14,0-.017.006-.034.01-.051.022-.115.043-.233.062-.351.01-.059.02-.118.027-.177l.013-.1c0-.025.007-.049.01-.072s.008-.066.012-.1.008-.063.01-.1.006-.047.009-.07c.007-.06.013-.119.017-.179s.01-.116.015-.173c0-.033,0-.066.007-.1s0-.072.005-.107c0-.012,0-.026,0-.037,0-.047,0-.093.007-.14,0-.026,0-.052,0-.078,0-.12.005-.239.005-.36,0-.059,0-.119,0-.179" transform="translate(-8095.551 6493.134)" fill="#fff"/>
    </g>
  </g>
</svg>
