<svg xmlns="http://www.w3.org/2000/svg" width="35.999" height="35.998" viewBox="0 0 35.999 35.998">
  <g id="instagram-icon" transform="translate(5865 -7645.104)">
    <g id="Group_290" data-name="Group 290">
      <path id="Path_56" data-name="Path 56" d="M1013.088,1093.269a16.985,16.985,0,0,1-17,17h-.126a17,17,0,1,1,17.126-17" transform="translate(-6843.09 6569.834)" fill="none" stroke="#fff" stroke-width="2"/>
      <g id="Group_5" data-name="Group 5" transform="translate(-5858.475 7650.779)">
        <path id="Path_57" data-name="Path 57" d="M1069.493,1163.607a4.219,4.219,0,0,1-4.214,4.214h-11.16a4.218,4.218,0,0,1-4.213-4.214v-11.16a4.217,4.217,0,0,1,4.213-4.213h11.16a4.218,4.218,0,0,1,4.214,4.213Zm-4.214-17.057h-11.16a5.9,5.9,0,0,0-5.9,5.9v11.16a5.9,5.9,0,0,0,5.9,5.9h11.16a5.9,5.9,0,0,0,5.9-5.9v-11.16a5.9,5.9,0,0,0-5.9-5.9" transform="translate(-1048.22 -1146.55)" fill="#fff"/>
        <path id="Path_58" data-name="Path 58" d="M1110.354,1213.678a5,5,0,1,1,5-5A5.009,5.009,0,0,1,1110.354,1213.678Zm0-12.048a7.044,7.044,0,1,0,7.044,7.044,7.052,7.052,0,0,0-7.044-7.044" transform="translate(-1098.875 -1197.195)" fill="#fff"/>
        <path id="Path_59" data-name="Path 59" d="M1213.758,1187.994a1.574,1.574,0,1,1-1.574-1.574,1.575,1.575,0,0,1,1.574,1.574" transform="translate(-1194.365 -1182.432)" fill="#fff"/>
      </g>
    </g>
  </g>
</svg>
