<svg xmlns="http://www.w3.org/2000/svg" width="35.999" height="35.998" viewBox="0 0 35.999 35.998">
  <g id="linkdin-icon" transform="translate(5713 -7645.105)">
    <path id="Path_72" data-name="Path 72" d="M5306.749,1093.269a17,17,0,1,1-17-17,16.988,16.988,0,0,1,17,17" transform="translate(-10984.75 6569.835)" fill="none" stroke="#fff" stroke-width="2"/>
    <g id="Group_6" data-name="Group 6" transform="translate(-5706.475 7651.63)">
      <path id="Path_73" data-name="Path 73" d="M5353.921,1155.952a2.91,2.91,0,1,1-2.909-2.932,2.911,2.911,0,0,1,2.909,2.932" transform="translate(-5348.101 -1153.02)" fill="#fff"/>
      <path id="Path_74" data-name="Path 74" d="M5428.3,1221.358v-2.471h-4.717v16.019h4.717q0-3.325,0-6.649c0-.571-.014-1.142.015-1.715a4.627,4.627,0,0,1,.25-1.351,2.6,2.6,0,0,1,1.245-1.5,3.124,3.124,0,0,1,1.5-.321,2.763,2.763,0,0,1,1.044.192,2.284,2.284,0,0,1,1.275,1.4,5.3,5.3,0,0,1,.3,1.867q.008,4.039,0,8.078h4.9q0-4.768,0-9.538a11.388,11.388,0,0,0-.067-1.322,7.233,7.233,0,0,0-.46-1.885,4.918,4.918,0,0,0-2.318-2.615,6.216,6.216,0,0,0-2.743-.657,6,6,0,0,0-1.223.09,5.472,5.472,0,0,0-3.039,1.62,5.174,5.174,0,0,0-.683.872v-.114" transform="translate(-5416.004 -1212.38)" fill="#fff"/>
      <path id="Path_75" data-name="Path 75" d="M5357.184,1218.89h-4.924v16.018h4.924V1218.89" transform="translate(-5351.814 -1212.383)" fill="#fff"/>
    </g>
  </g>
</svg>
