<svg xmlns="http://www.w3.org/2000/svg" width="56" height="46" viewBox="0 0 56 46">
  <g id="wht-btn" fill="#fff">
    <path d="M 48.88246917724609 45 L 7.117539882659912 45 C 6.018410205841064 45 5.040729999542236 44.42795181274414 4.502240180969238 43.46976852416992 C 3.963749885559082 42.51160049438477 3.983449935913086 41.37903213500977 4.554940223693848 40.44015884399414 L 25.43740081787109 6.13325023651123 C 25.98630905151367 5.231470108032227 26.94429016113281 4.693090438842773 28 4.693090438842773 C 29.05570030212402 4.693090438842773 30.01367950439453 5.231470108032227 30.56258964538574 6.13325023651123 L 51.44506072998047 40.44015884399414 C 52.01654815673828 41.37903213500977 52.03625106811523 42.51160049438477 51.49776077270508 43.46977996826172 C 50.95927047729492 44.42795181274414 49.98159027099609 45 48.88246917724609 45 Z" stroke="none"/>
    <path d="M 28 5.693088531494141 C 27.66205024719238 5.693088531494141 26.81907081604004 5.786640167236328 26.29159927368164 6.653190612792969 L 5.409141540527344 40.96009826660156 C 4.859981536865234 41.86230087280273 5.201629638671875 42.67311859130859 5.374008178710938 42.97985076904297 C 5.546390533447266 43.28657913208008 6.061351776123047 44 7.117530822753906 44 L 48.88246154785156 44 C 49.93865203857422 44 50.45360946655273 43.28657913208008 50.62599182128906 42.97985076904297 C 50.79837036132812 42.67311859130859 51.14001846313477 41.86230087280273 50.59085083007812 40.96009826660156 L 29.70840072631836 6.653202056884766 C 29.1809196472168 5.786640167236328 28.33794975280762 5.693088531494141 28 5.693088531494141 M 27.99999809265137 3.693088531494141 C 29.31878662109375 3.693088531494141 30.63757514953613 4.333160400390625 31.41679000854492 5.613300323486328 L 52.29925155639648 39.92021179199219 C 53.92179107666016 42.58580017089844 52.00302886962891 46 48.88246154785156 46 L 7.117530822753906 46 C 3.996971130371094 46 2.078208923339844 42.58580017089844 3.700740814208984 39.92021179199219 L 24.58320045471191 5.613300323486328 C 25.36241912841797 4.333160400390625 26.68120956420898 3.693088531494141 27.99999809265137 3.693088531494141 Z" stroke="none" fill="#000"/>
  </g>
</svg>
