<svg xmlns="http://www.w3.org/2000/svg" width="35.999" height="35.998" viewBox="0 0 35.999 35.998">
  <g id="x-icon" transform="translate(5764 -7645.105)">
    <g id="Group_292" data-name="Group 292">
      <path id="Path_85" data-name="Path 85" d="M2239.848,1093.269a16.987,16.987,0,0,1-17,17h-.126a17,17,0,1,1,17.126-17" transform="translate(-7968.85 6569.835)" fill="none" stroke="#fff" stroke-width="2"/>
      <path id="logo" d="M12.86,12.733,20.9,22.084H19l-6.985-8.119L6.435,22.084H0L8.436,9.806,0,0H1.906L9.283,8.574,15.174,0h6.435L12.86,12.733ZM10.249,9.7,9.394,10.92l-6.8,9.728H5.521L11.01,12.8l.855-1.223L19,1.37H16.071L10.249,9.7Z" transform="translate(-5756.806 7652.062)" fill="#fff"/>
    </g>
  </g>
</svg>
